<svg xmlns="http://www.w3.org/2000/svg" width="40" height="35" viewBox="0 0 40 35">
  <g id="Bag" transform="translate(0 -3.75)">
    <path id="Path_152" data-name="Path 152" d="M25,16.25a2.362,2.362,0,0,0,2.5,2.5,2.362,2.362,0,0,0,2.5-2.5,2.362,2.362,0,0,0-2.5-2.5A2.362,2.362,0,0,0,25,16.25Zm-15,0a2.362,2.362,0,0,0,2.5,2.5,2.362,2.362,0,0,0,2.5-2.5,2.362,2.362,0,0,0-2.5-2.5A2.362,2.362,0,0,0,10,16.25ZM37.5,11,40,36a2.839,2.839,0,0,1-.75,2,1.946,1.946,0,0,1-1.75.75H2.5A1.946,1.946,0,0,1,.75,38,2.839,2.839,0,0,1,0,36L2.5,11A2.658,2.658,0,0,1,5,8.75h5C10,3.25,14.5,11,20,11S30,3.25,30,8.75h5A2.658,2.658,0,0,1,37.5,11ZM25,8.75H15a5,5,0,0,1,10,0Z" fill="#3d3d3d" fill-rule="evenodd"/>
  </g>
</svg>
